# xmcd
#
# Track frame offsets:
#	150
#	17713
#	51669
#	74988
#	109940
#	138334
#	158695
#	187502
#	218037
#	253608
#	272454
#	295273
#
# Disc length: 4344 seconds
#
# Revision: 1
# Processed by: cddbd v1.5.2PL0 Copyright (c) Steve Scherf et al.
# Submitted via: audiograbber 1.83.01
#
DISCID=b310f60c
DTITLE=Various Artist - Serious Beats 73 [CD 1)
DYEAR=2013
DGENRE=Dance
TTITLE0=Duke Dumont ft. A-M-E - Need U (100%)
TTITLE1=Avicii vs Nicky Romero - I Could Be The One (Nicktim)
TTITLE2=Hardwell ft. Amba Shepherd - Apollo
TTITLE3=Tomcraft - Loneliness 2K13 (Tujamo Remix)
TTITLE4=Dimitri Vegas, Like Mike, Coone and Lil Jon - Madness
TTITLE5=TJR - Ode To Oi
TTITLE6=Sem Thomasson ft. Rama Writes - Nobody (Regi Remix)
TTITLE7=Promise Land ft. Georgi Kay - Emotions
TTITLE8=Alex Gaudino ft. JRDN - Playing With My Heart
TTITLE9=Lumidee ft. Pitbull vs Nicola Fasano and Steve Forest - Crazy
TTITLE10=Dam'Edge ft. Fatman Scoop and Kat Deluna - Shake It
TTITLE11=Kaskade ft. Neon Tress - Lessons In Love (Headhunterz Remix)
EXTD=
EXTT0=
EXTT1=
EXTT2=
EXTT3=
EXTT4=
EXTT5=
EXTT6=
EXTT7=
EXTT8=
EXTT9=
EXTT10=
EXTT11=
PLAYORDER=
